<?xml version="1.0" encoding="utf-8"?>
<!-- Generator: Adobe Illustrator 16.0.3, SVG Export Plug-In . SVG Version: 6.00 Build 0)  -->
<!DOCTYPE svg PUBLIC "-//W3C//DTD SVG 1.1//EN" "http://www.w3.org/Graphics/SVG/1.1/DTD/svg11.dtd">
<svg version="1.1"
	 id="Layer_2" xmlns:cc="http://creativecommons.org/ns#" xmlns:rdf="http://www.w3.org/1999/02/22-rdf-syntax-ns#" xmlns:svg="http://www.w3.org/2000/svg" xmlns:inkscape="http://www.inkscape.org/namespaces/inkscape" xmlns:sodipodi="http://sodipodi.sourceforge.net/DTD/sodipodi-0.dtd" xmlns:dc="http://purl.org/dc/elements/1.1/" sodipodi:docname="Google Play symbol.svg" inkscape:version="0.48.2 r9819"
	 xmlns="http://www.w3.org/2000/svg" xmlns:xlink="http://www.w3.org/1999/xlink" x="0px" y="0px" width="595.279px" height="146px"
	 viewBox="0 339.445 595.279 146" enable-background="new 0 339.445 595.279 146" xml:space="preserve">
<linearGradient id="path46_2_" gradientUnits="userSpaceOnUse" x1="297.6404" y1="363.6172" x2="297.6404" y2="478.416">
	<stop  offset="0" style="stop-color:#D1D1D1"/>
	<stop  offset="1" style="stop-color:#5C5C5C"/>
</linearGradient>
<path id="path46_1_" inkscape:connector-curvature="0" fill="url(#path46_2_)" d="M195.354,395.308
	c-15.642,0-28.564,12.105-28.564,28.703c0,16.411,12.786,28.702,28.564,28.702c15.779,0,28.564-12.105,28.564-28.702
	C223.918,407.413,211.133,395.308,195.354,395.308z M195.354,441.281c-8.57,0-16.049-7.207-16.049-17.463
	c0-10.259,7.479-17.356,16.049-17.356c8.566,0,16.049,7.097,16.049,17.356C211.403,434.167,203.92,441.281,195.354,441.281z
	 M133.057,395.308c-15.777,0-28.562,12.105-28.562,28.703c0,16.411,12.785,28.702,28.562,28.702
	c15.779,0,28.567-12.105,28.567-28.702C161.624,407.413,148.836,395.308,133.057,395.308z M133.057,441.281
	c-8.57,0-16.049-7.207-16.049-17.463c0-10.259,7.479-17.356,16.049-17.356c8.569,0,16.05,7.097,16.05,17.356
	C149.107,434.167,141.76,441.281,133.057,441.281z M59.062,404.15v12.106h28.837c-0.817,6.78-3.128,11.834-6.529,15.239
	c-4.217,4.213-10.747,8.834-22.308,8.834c-17.819,0-31.693-14.416-31.693-32.37c0-17.937,13.874-32.236,31.693-32.236
	c9.658,0,16.594,3.809,21.766,8.706l8.431-8.582c-7.209-6.92-16.729-12.23-30.196-12.23c-24.482,0-44.886,19.994-44.886,44.476
	c0,24.486,20.404,44.438,44.886,44.438c13.196,0,22.987-4.307,30.877-12.5c8.025-8.01,10.474-19.285,10.474-28.4
	c0-2.854-0.272-5.439-0.68-7.617L59.062,404.15z M361.978,413.559c-2.344-6.417-9.658-18.251-24.351-18.251
	c-14.722,0-26.836,11.563-26.836,28.703c0,16.021,12.114,28.702,28.196,28.702c13.021,0,20.54-8.027,23.669-12.682l-9.663-6.5
	c-3.261,4.74-7.629,7.865-14.006,7.865c-6.391,0-10.879-2.834-13.738-8.684l38.082-15.914L361.978,413.559z M323.211,423.037
	c-0.306-10.997,8.568-16.707,14.825-16.707c5.028,0,9.135,2.447,10.612,6.119L323.211,423.037z M292.334,450.819h12.514v-84.211
	h-12.514V450.819z M271.796,401.703h-0.407c-2.857-3.406-8.178-6.395-14.962-6.395c-14.283,0-27.203,12.652-27.203,28.703
	c0,16.021,13.057,28.521,27.203,28.521c6.784,0,12.105-2.947,14.962-6.484h0.407v4.078c0,11.055-5.851,16.893-15.23,16.893
	c-7.619,0-12.387-5.604-14.285-10.227l-10.884,4.623c3.127,7.617,11.428,17.002,25.169,17.002c14.685,0,27.051-8.699,27.051-29.791
	v-51.548h-11.821V401.703z M257.515,441.281c-8.568,0-15.784-7.207-15.784-17.271c0-10.061,7.215-17.413,15.784-17.413
	c8.43,0,15.234,7.353,15.234,17.413C272.749,434.074,265.945,441.281,257.515,441.281z M420.464,366.608h-29.939v84.211h12.527
	v-31.842h17.412c13.875,0,27.476-10.066,27.476-26.118C447.94,376.813,434.339,366.608,420.464,366.608z M420.873,407.281h-17.821
	v-28.838h17.821c9.249,0,14.692,7.75,14.692,14.416C435.407,399.399,430.122,407.281,420.873,407.281z M497.995,395.172
	c-8.977,0-18.362,3.944-22.168,12.921l11.015,4.626c2.453-4.626,6.801-6.122,11.431-6.122c6.523,0,13.056,3.944,13.189,10.882v0.818
	c-2.312-1.36-7.073-3.267-13.058-3.267c-11.967,0-24.078,6.636-24.078,18.911c0,11.287,9.795,18.494,20.677,18.494
	c8.419,0,13.046-3.811,15.916-8.305h0.409v6.537h12.104v-32.225C523.294,403.471,512.279,395.172,497.995,395.172z M496.502,441.281
	c-4.082,0-9.794-2.036-9.794-7.114c0-6.483,7.074-8.984,13.191-8.984c5.434,0,8.019,1.274,11.429,2.909
	C510.378,435.708,503.711,441.281,496.502,441.281z M567.226,396.93l-14.275,36.456h-0.409l-14.826-36.456h-13.462l22.16,51.017
	l-12.644,28.446h13.057l34.278-79.463H567.226z M454.879,450.819h12.515v-84.211h-12.515V450.819z"/>
</svg>
