<?xml version="1.0" encoding="utf-8"?>
<!-- Generator: Adobe Illustrator 16.0.3, SVG Export Plug-In . SVG Version: 6.00 Build 0)  -->
<!DOCTYPE svg PUBLIC "-//W3C//DTD SVG 1.1//EN" "http://www.w3.org/Graphics/SVG/1.1/DTD/svg11.dtd">
<svg version="1.1" id="Layer_1" xmlns="http://www.w3.org/2000/svg" xmlns:xlink="http://www.w3.org/1999/xlink" x="0px" y="0px"
	 width="1231.199px" height="217.8px" viewBox="0 0 1231.199 217.8" enable-background="new 0 0 1231.199 217.8"
	 xml:space="preserve">
<path fill="#DA032B" d="M127.6,182.9c-1.8-0.3-3.6-0.5-5.3-1c-11.2-3.5-22.3-7.1-33.8-10.699c0-4,0-8,0-12c0-3.5,0-7.101,0-10.601
	c0-3.7,0-7.399,0-11.101c0-4.6,0-9.299,0-13.899c0-4.101,0-8.101,0-12.2c0-3.5,0-7.1,0-10.6c0-8.6,0.1-17.2,0.1-25.9
	c0-23.5,0-47,0-70.5c0-1.3,0-2.7,0-4.5c6.3,1.5,12.101,2.7,17.9,4.2c16.399,4.5,32.8,8.7,48.399,15.7
	c12.801,5.8,23.5,14,27.801,28.1c3.899,12.8,4.399,25.8,1.199,38.8c-0.399,1.8-1.1,3.6-1.899,5.3c-5.601,12-16.4,17.1-29.8,13.7
	c-3.2-0.8-6.301-2.1-9.601-3.3c0-6.7,0-13.1,0-19.4c0-12.2,0.101-24.5-0.1-36.7c0-3.3-0.3-6.8-1.4-9.9c-0.7-2.1-2.7-4.2-4.7-5.4
	c-3.6-2.2-6.8-0.7-8.199,3.4c-0.5,1.6-0.801,3.4-0.9,5.1c-0.1,27.4-0.1,54.7-0.1,82.1c0,0.5,0.1,1,0.199,1.5
	c0,7.7,0,15.399,0.101,23c0,4.7-0.101,9.399-0.101,14.101c0,0.299,0,0.699,0,1C127.5,168.6,127.6,175.8,127.6,182.9z"/>
<path fill="#FFFFFF" d="M345.199,118.8c0-4.9,0-9.4,0-14.2c4.601,0,9.101,0,13.5,0c8,0,12.5-2.9,14.801-10.5
	c3.399-11.1,3.5-22.4,0-33.5C371.199,52.8,367.1,50,359,50c-8,0-15.9,0-24.301,0c0,39.6,0,78.9,0,118.3c-7.899,0-15.3,0-23.1,0
	c0-44,0-88.2,0-132.7c1.4,0,2.8,0,4.1,0c16.5,0,33,0.3,49.5-0.1C382.8,35.1,393.1,45.3,397,59.4c3.899,14.1,4,28.2-2.601,41.5
	c-5.8,11.7-15.3,18-28.7,17.9C359,118.8,352.3,118.8,345.199,118.8z"/>
<path fill="#FFFFFF" d="M549.9,67.4c8.4,0,16.4,0,24.601,0c7.399,21.7,14.8,43.4,22.199,65.1c0.301,0.101,0.601,0.101,1,0.201
	C606.1,111,614.5,89.2,623,67.5c7.399,0,14.6,0,22.3,0c-20,50.3-40,100.4-60,150.4c-6.9,0-13.5,0-20.5,0c2.6-6.9,5.2-13.6,7.7-20.3
	c3.399-8.7,6.699-17.399,10.199-26c1-2.399,1.101-4.601,0.2-7.2c-10.7-31-21.2-62-31.8-93C550.8,70.1,550.4,68.9,549.9,67.4z"/>
<path fill="#FFFFFF" d="M855.699,168.4c-8.5,0-16.899,0.4-25.199-0.1c-10.301-0.6-19.301-9.5-21.7-20.7
	c-0.601-2.899-0.9-5.899-0.9-8.899c-0.1-9.5-0.5-19,0.2-28.5c0.5-6.901,1.7-13.901,3.9-20.401c4.399-12.9,14.199-20.4,27.5-21.5
	c16.6-1.3,33.399-1,50.5-1.4c0,34.2,0,67.7,0,101.4c-7.601,0-15.301,0-23.301,0c0-28.801,0-57.5,0-86c-7.899,0-15.5-0.4-23,0.2
	c-4.5,0.3-7.3,3.9-9,8.1c-2.699,6.8-3.199,14.1-3.399,21.3c-0.2,9.7-0.101,19.5,0,29.2c0,2.101,0.3,4.2,0.7,6.3
	c1.1,4.7,3.899,6.9,8.8,6.9c4.899,0,9.7,0,14.899,0C855.699,158.9,855.699,163.5,855.699,168.4z"/>
<path fill="#FFFFFF" d="M536.8,168.4c-7.601,0-15.101,0-22.9,0c0-28.699,0-57.4,0-86.7c-2.6,0-5,0-7.3,0
	c-4.601,0.1-9.2,0.1-13.8,0.3c-5.7,0.2-9.4,3.5-11.101,8.6c-1.399,4.2-2.7,8.7-2.899,13c-0.4,13.601-0.5,27.2-0.2,40.8
	c0.2,7.4,3.3,9.9,10.6,9.9c4.2,0,8.5,0,12.7,0c0.2,0,0.5,0,1.3,0.1c0,2.2,0,4.6,0,6.9c0,2.199,0,4.5,0,7c-1.1,0.1-2,0.3-3,0.3
	c-6,0-12-0.2-18,0.101c-14.8,0.799-25.5-9.9-26.7-23.301c-1.1-12-0.899-24.199-0.5-36.2c0.2-6.1,1.5-12.4,3.4-18.2
	c4.4-14,14.8-21.6,29-22.7c16.3-1.2,32.6-0.9,49.3-1.2C536.8,100.9,536.8,134.5,536.8,168.4z"/>
<path fill="#FFFFFF" d="M1195.699,168.4c-7.899,0-15.3,0-23.399,0c0-1.4,0-2.699,0-4c0-18,0.199-36-0.101-54
	c-0.1-5.8-0.899-11.7-2.199-17.4c-1.5-6.6-5.801-11-13.101-11.2c-6.5-0.2-12.899,0-19.7,0c0,28.8,0,57.5,0,86.401
	c-8,0-15.699,0-23.699,0c0-33.4,0-66.901,0-100.801c1.1-0.1,2.1-0.2,3.199-0.2c12.101,0,24.2-0.3,36.4,0.1c5.9,0.2,12,0.8,17.7,2.4
	c13.7,4,20.5,14.3,23.2,27.6c1,5.1,1.6,10.4,1.699,15.6C1195.8,131.3,1195.699,149.701,1195.699,168.4z"/>
<path fill="#FFFFFF" d="M1011.3,117.1c0.899-6.5,1.399-14,3-21.2c3.6-16.2,14.899-26,31.399-27.9c7.2-0.8,14.4-0.8,21.601,0.6
	c14,2.7,23.6,10.7,27.5,24.3c4.8,16.6,4.8,33.5,0,50.2c-3.7,12.899-12.4,21-25.601,24c-10.399,2.3-20.8,2.3-31.1-0.601
	c-14.7-4.199-22.1-15-24.7-29.399C1012.4,130.8,1012,124.5,1011.3,117.1z M1075,118.1c-0.301,0-0.5-0.101-0.801-0.101
	c0-1.899,0-3.699,0-5.6c-0.1-7-0.6-13.9-3.1-20.6c-1.6-4.4-4.4-7.8-9.1-9.2c-4.601-1.3-9.301-1.4-14-0.1
	c-6.7,1.8-9.4,7.1-10.601,13.2c-3,14.9-2.899,30,0,44.9c0.9,4.399,2.8,8.601,6.9,11.2c10.3,6.8,24.7,1.8,27.5-10.1
	C1073.699,134.1,1074,126,1075,118.1z"/>
<path fill="#FFFFFF" d="M724.5,35.7c0,5,0,9.5,0,14.3c-3,0-5.801,0-8.7,0c-7.601,0-15.2,0-22.9,0c-9.8,0.1-15.4,4.9-16.4,14.7
	c-0.399,3.8-0.399,7.7,0,11.5c1.101,9,6,13.4,15,14.1c5.2,0.4,10.4,0.7,15.601,1.5c10.899,1.6,18.1,8,21.7,18.2
	c4.6,12.801,4.699,25.9,0.3,38.801c-4.2,12.3-13.601,18.8-26.2,19.4c-14.6,0.699-29.2,0.199-44.2,0.199c0-4.6,0-9.1,0-14
	c0.9-0.1,2-0.199,3.101-0.199c9.199,0,18.5,0,27.699,0c11.7,0,17.101-4.301,18.7-15.9c0.7-5.2,0.3-10.801-0.7-16
	c-1.5-8-6.8-11.9-15.1-12.4c-4.5-0.3-9-0.3-13.4-1.3c-13.1-2.8-21.199-11-24.399-23.9c-2.8-11.5-2.101-22.8,3.899-33.3
	c4.9-8.7,12.801-13.7,22.5-14.9c7.301-0.9,14.7-0.8,22-0.9C710.3,35.6,717.3,35.7,724.5,35.7z"/>
<path fill="#FFFFFF" d="M791.9,154.5c0,4.601,0,9.101,0,13.601c-7.3,0-14.6,1-21.6-0.2c-11.601-2-17.601-10.4-20.101-21.5
	c-0.699-3-0.8-6.199-0.899-9.3c-0.101-27.5,0-55,0-82.4c0-1.3,0-2.7,0-4.2c8,0,15.5,0,23.5,0c0,5.5,0,11,0,16.7c8.6,0,16.8,0,25.1,0
	c0,4.9,0,9.4,0,14.4c-8.2,0-16.399,0-24.8,0c-0.1,1.4-0.2,2.5-0.2,3.6c0,18.7,0,37.5,0,56.2c0,1.9,0.2,3.7,0.5,5.6
	c0.9,5,3.7,7.201,8.8,7.301c3,0,6,0,9,0.1C791.4,154.3,791.5,154.4,791.9,154.5z"/>
<path fill="#FFFFFF" d="M909.6,50.5c8,0,15.5,0,23.3,0c0,5.4,0,10.9,0,16.7c8.7,0,16.9,0,25.4,0c0,5,0,9.5,0,14.4
	c-8.3,0-16.5,0-24.9,0c-0.1,1.4-0.2,2.4-0.2,3.5c0,19,0,38,0,57c0,1.8,0.2,3.7,0.7,5.5c1.2,4.8,3.5,6.601,8.5,6.601c3,0,6,0,9,0.1
	c0.1,0,0.2,0.1,0.6,0.4c0,4.399,0,8.899,0,13.5c-7.1,0-14.3,0.799-21.199-0.201c-11.2-1.6-19.5-11.899-20.7-23.899
	c-0.2-1.899-0.3-3.7-0.3-5.601c0-28.399,0-56.7,0-85.1C909.6,52.6,909.6,51.7,909.6,50.5z"/>
<path fill="#FFFFFF" d="M414.199,35.8c7.801,0,15.301,0,22.9,0c0,44.2,0,88.2,0,132.5c-7.6,0-15.2,0-22.9,0
	C414.199,124.201,414.199,80.2,414.199,35.8z"/>
<path fill="#FFFFFF" d="M995.9,168.4c-7.5,0-15,0-22.8,0c0-33.5,0-67,0-100.8c7.4,0,14.9,0,22.8,0
	C995.9,100.9,995.9,134.4,995.9,168.4z"/>
<path fill="#346CB0" d="M128.3,123.3c19.3-8.301,39.4-11.5,60.2-9.801c13.6,1.101,26.8,4.101,39.2,10
	c1.899,0.9,3.699,2.101,5.399,3.4c5.4,4.301,5.601,10.301,0.5,15.1c-4.3,4.101-9.5,6.701-15.2,8.4c-0.5-0.3-1.1-0.6-1.6-0.8
	c-6.8-2-13.6-3.899-20.4-6c-3.5-1.101-6.899-2.399-10.3-3.601c4.2-1.6,8.4-3.1,12.601-4.799c2-0.801,3.899-1.801,4.1-4.5
	c-1.7-2.801-4.7-3.101-7.5-3.4c-6.9-0.6-13.7-0.1-20.3,2.4c-4.2,1.6-8.5,2.899-12.7,4.299c-0.5-0.5-1-1.199-1.6-1.399
	c-3.101-0.899-6.2-1.601-9.301-2.5C143.7,127.9,136,125.6,128.3,123.3z"/>
<path fill="#EAC008" d="M88.4,148.6c0,3.5,0,7.101,0,10.601c-11.199,2-22.399,3.299-33.8,3c-15.3-0.5-30.2-3-44.3-9.301
	c-2.1-0.9-4.1-2.3-6-3.699c-5.7-4.4-5.9-11.201,0-15.4c4.4-3.2,9.5-5.4,14.2-8c1.2,0.5,2.5,1.199,3.8,1.6
	c9.6,3.1,19.1,6.2,28.7,9.301c-4.2,1.699-8.4,3.199-12.4,5c-1.399,0.6-2.3,2.199-3.899,4c2.5,1.1,4.1,2.199,5.8,2.6
	c7.8,1.699,15.3,0.6,22.8-1.9c3.3-1.1,6.6-1.9,9.9-2.9C78.3,145.201,83.4,146.9,88.4,148.6z"/>
<path fill="#08A899" d="M186.1,140c3.4,1.201,6.8,2.601,10.3,3.601c6.801,2.101,13.601,4,20.4,6c0.6,0.2,1.1,0.5,1.6,0.8
	C207.7,154.3,197,158.3,186.2,162.201C178.6,165,171,167.6,163.4,170.3c-1.399,0.5-2.8,0.8-4.3,1.199
	c-2.5-0.899-5.1-1.799-7.6-2.699c-8-2.5-16-5-24.101-7.5c0-0.301,0-0.7,0-1c7.2-2.5,14.4-4.9,21.5-7.4
	C161.4,148.701,173.7,144.3,186.1,140z"/>
<path fill="#08A899" d="M51,136.701C41.4,133.6,31.8,130.5,22.3,127.4c-1.3-0.4-2.5-1.1-3.8-1.6c18.1-6.4,36.1-12.801,54.2-19.3
	c5.199,1.6,10.5,3.3,15.699,4.9c0,4.1,0,8.1,0,12.2c-1.3,0.399-2.6,0.7-3.899,1.101C73.4,128.701,62.2,132.701,51,136.701z"/>
<path fill="#FFFFFF" d="M973.199,35.8c7.601,0,15.101,0,22.801,0c0,6.5,0,12.9,0,19.5c-7.601,0-15,0-22.801,0
	C973.199,48.9,973.199,42.5,973.199,35.8z"/>
<path fill="#08A899" d="M128.3,123.3c7.7,2.3,15.4,4.6,23,6.8c3.1,0.899,6.2,1.601,9.3,2.5c0.601,0.2,1.101,0.899,1.601,1.399
	c-2.301,0.9-4.601,1.801-6.9,2.601c-9.2,3.2-18.5,6.399-27.7,9.601c0-7.701,0-15.4-0.1-23C127.8,123.3,128.1,123.3,128.3,123.3z"/>
<path fill="#EAC008" d="M127.5,161.5c8,2.5,16,4.9,24.1,7.5c2.601,0.801,5.101,1.801,7.601,2.701C148.7,175.5,138.1,179.3,127.6,183
	C127.6,175.8,127.5,168.6,127.5,161.5z"/>
<path fill="#FFFFFF" d="M1219.699,191.9c-6.3-0.1-11.3-5.1-11.3-11.4c0-6.6,5-11.5,11.7-11.399c6.3,0.101,11.199,5.101,11.1,11.601
	C1231.199,186.9,1226,191.9,1219.699,191.9z M1226.8,186.4c3.2-3.4,3-9.1-0.5-12.5c-3.601-3.5-9.2-3.6-12.8-0.199
	c-3.801,3.5-4,9.299-0.5,13.1c3.1,3.4,9.1,3.9,12.5,1L1226.8,186.4z"/>
<path fill="#346CB0" d="M88.4,111.4c-5.199-1.6-10.5-3.3-15.699-4.9c5.3-1.9,10.5-3.8,15.8-5.7C88.4,104.4,88.4,107.9,88.4,111.4z"
	/>
<path fill="#08A899" d="M73.2,143.5c3.1-1.299,6.199-2.699,9.3-3.899c1.899-0.8,3.899-1.399,5.899-2c0,3.7,0,7.399,0,11.101
	C83.4,146.9,78.3,145.201,73.2,143.5z"/>
<path fill="#FFFFFF" d="M1225.8,186.3c-0.9,0.1-1.9,0.199-3,0.3c-0.2-1.7-0.3-3-0.4-4.8c-1.6-0.1-3.1-0.301-4.899-0.4
	c-0.101,1.801-0.301,3.2-0.4,4.9c-0.6,0.1-1.3,0.199-2.2,0.3c0-4.3,0-8.399,0-12.399c5.4-0.9,6.9-0.701,9.5,1.1
	c0.101,1,0.5,3,0,4.199c-0.3,0.701-2,0.9-1.399,1c2.8,0.301,2.399,3.801,2.699,5.9L1225.8,186.3z M1217.4,179
	c4.7,0.601,5.8,0.801,5.101-2.199c-0.2-1.1-3.301-0.4-5.101-0.4C1217.4,177.1,1217.4,178,1217.4,179z"/>
</svg>
