<?xml version="1.0" encoding="utf-8"?>
<!-- Generator: Adobe Illustrator 16.0.3, SVG Export Plug-In . SVG Version: 6.00 Build 0)  -->
<!DOCTYPE svg PUBLIC "-//W3C//DTD SVG 1.1//EN" "http://www.w3.org/Graphics/SVG/1.1/DTD/svg11.dtd">
<svg version="1.1" id="Layer_1" xmlns="http://www.w3.org/2000/svg" xmlns:xlink="http://www.w3.org/1999/xlink" x="0px" y="0px"
	 width="1231.199px" height="217.8px" viewBox="0 0 1231.199 217.8" enable-background="new 0 0 1231.199 217.8"
	 xml:space="preserve">
<path fill="#DA032B" d="M278.546,160.02c-1.245-0.25-2.487-0.319-3.661-0.688c-7.736-2.45-15.405-4.878-23.349-7.419
	c0-2.729,0-5.507,0-8.297c0-2.349,0-4.898,0-7.323c0-2.545,0-5.063,0-7.616c0-3.225,0-6.446,0-9.667c0-2.79,0-5.569,0-8.396
	c0-2.385,0-4.87,0-7.32c0-5.91,0.069-11.886,0.069-17.896c0-16.218,0-32.436,0-48.655c0-0.905,0-1.888,0-3.121
	c4.353,1.041,8.36,1.847,12.367,2.888c11.324,3.122,22.652,6.01,33.422,10.845c8.847,4.029,16.235,9.67,19.204,19.431
	c2.696,8.808,3.038,17.806,0.829,26.804c-0.278,1.209-0.757,2.484-1.311,3.66c-3.869,8.26-11.326,11.786-20.578,9.436
	c-2.213-0.538-4.354-1.444-6.639-2.252c0-4.664,0-9.081,0-13.428c0-8.399,0.075-16.896-0.063-25.351c0-2.25-0.21-4.701-0.973-6.817
	c-0.479-1.444-1.86-2.894-3.241-3.759c-2.487-1.481-4.698-0.451-5.665,2.35c-0.344,1.141-0.552,2.35-0.624,3.525
	c-0.069,18.937-0.069,37.774-0.069,56.711c0,0.369,0.069,0.737,0.141,1.05c0,5.274,0,10.602,0.07,15.841
	c0,3.257-0.07,6.513-0.07,9.771c0,0.171,0,0.461,0,0.737C278.476,150.1,278.546,155.07,278.546,160.02z"/>
<linearGradient id="SVGID_1_" gradientUnits="userSpaceOnUse" x1="436.0452" y1="58.1919" x2="436.0452" y2="149.9316">
	<stop  offset="0" style="stop-color:#D1D1D1"/>
	<stop  offset="1" style="stop-color:#787878"/>
</linearGradient>
<path fill="url(#SVGID_1_)" d="M428.843,115.783c0-3.457,0-6.516,0-9.871c3.16,0,6.282,0,9.304,0c5.533,0,8.63-1.981,10.229-7.22
	c2.348-7.688,2.431-15.5,0-23.134c-1.599-5.402-4.414-7.32-9.998-7.32c-5.539,0-10.985,0-16.803,0c0,27.333,0,54.495,0,81.693
	c-5.447,0-10.559,0-15.956,0c0-30.354,0-60.909,0-91.643c0.978,0,1.939,0,2.845,0c11.383,0,22.778,0.179,34.187-0.089
	c12.156-0.269,19.269,6.782,21.966,16.498c2.674,9.759,2.771,19.482-1.792,28.696c-4.028,8.026-10.576,12.391-19.843,12.39
	C438.378,115.783,433.735,115.783,428.843,115.783z"/>
<linearGradient id="SVGID_2_" gradientUnits="userSpaceOnUse" x1="603.176" y1="80.2573" x2="603.176" y2="184.1797">
	<stop  offset="0" style="stop-color:#D1D1D1"/>
	<stop  offset="1" style="stop-color:#787878"/>
</linearGradient>
<path fill="url(#SVGID_2_)" d="M570.237,80.257c5.777,0,11.284,0,16.991,0c5.103,14.948,10.208,29.962,15.311,44.902
	c0.229,0.094,0.405,0.094,0.672,0.193c5.838-15.01,11.618-30.052,17.484-45.06c5.111,0,10.082,0,15.421,0
	c-13.833,34.751-27.651,69.369-41.434,103.886c-4.8,0-9.36,0-14.181,0c1.791-4.801,3.604-9.4,5.317-14.002
	c2.349-6.054,4.644-12.02,7.049-17.996c0.672-1.612,0.773-3.157,0.134-4.97c-7.39-21.422-14.64-42.78-21.959-64.2
	C570.831,82.105,570.545,81.288,570.237,80.257z"/>
<linearGradient id="SVGID_3_" gradientUnits="userSpaceOnUse" x1="776.697" y1="79.8896" x2="776.697" y2="150.126">
	<stop  offset="0" style="stop-color:#D1D1D1"/>
	<stop  offset="1" style="stop-color:#787878"/>
</linearGradient>
<path fill="url(#SVGID_3_)" d="M781.434,150.031c-5.875,0-11.649,0.269-17.448-0.1c-7.062-0.455-13.274-6.607-14.964-14.271
	c-0.393-2.005-0.596-4.063-0.596-6.144c-0.063-6.613-0.333-13.146,0.105-19.709c0.368-4.79,1.175-9.623,2.719-14.103
	c3.041-8.898,9.781-14.102,18.972-14.856c11.482-0.879,23.055-0.69,34.886-0.958c0,23.638,0,46.734,0,70.042
	c-5.239,0-10.578,0-16.085,0c0-19.879,0-39.712,0-59.415c-5.444,0-10.703-0.284-15.914,0.147c-3.058,0.206-5.036,2.691-6.212,5.579
	c-1.813,4.7-2.182,9.77-2.344,14.739c-0.107,6.683-0.014,13.465,0,20.147c0,1.444,0.26,2.888,0.53,4.332
	c0.706,3.257,2.677,4.801,6.045,4.801c3.376,0,6.683,0,10.306,0C781.434,143.417,781.434,146.574,781.434,150.031z"/>
<linearGradient id="SVGID_4_" gradientUnits="userSpaceOnUse" x1="532.8079" y1="80.0244" x2="532.8079" y2="150.2285">
	<stop  offset="0" style="stop-color:#D1D1D1"/>
	<stop  offset="1" style="stop-color:#787878"/>
</linearGradient>
<path fill="url(#SVGID_4_)" d="M561.163,150.031c-5.262,0-10.417,0-15.819,0c0-19.892,0-39.688,0-59.933c-1.768,0-3.445,0-5.023,0
	c-3.185,0.1-6.379,0.1-9.536,0.234c-3.929,0.135-6.514,2.385-7.689,5.911c-0.94,2.916-1.848,6.01-1.98,8.998
	c-0.27,9.372-0.367,18.748-0.135,28.138c0.135,5.17,2.25,6.883,7.319,6.883c2.888,0,5.876,0,8.764,0c0.134,0,0.361,0,0.906,0.1
	c0,1.497,0,3.156,0,4.721c0,1.492,0,3.137,0,4.85c-0.772,0.1-1.408,0.169-2.082,0.169c-4.163,0-8.282-0.069-12.424,0.101
	c-10.218,0.536-17.627-6.877-18.435-16.085c-0.771-8.326-0.635-16.72-0.368-24.996c0.135-4.248,1.041-8.581,2.351-12.598
	c3.03-9.666,10.213-14.919,20.017-15.673c11.278-0.824,22.544-0.591,34.075-0.824C561.163,103.393,561.163,126.624,561.163,150.031z
	"/>
<linearGradient id="SVGID_5_" gradientUnits="userSpaceOnUse" x1="987.865" y1="80.0264" x2="987.865" y2="150.0313">
	<stop  offset="0" style="stop-color:#D1D1D1"/>
	<stop  offset="1" style="stop-color:#787878"/>
</linearGradient>
<path fill="url(#SVGID_5_)" d="M1016.236,150.031c-5.437,0-10.561,0-16.151,0c0-1.007,0-1.912,0-2.819
	c0-12.385,0.137-24.847-0.036-37.286c-0.096-4.013-0.633-8.076-1.538-12.005c-1.044-4.566-4.008-7.589-9.034-7.723
	c-4.529-0.134-8.956,0-13.653,0c0,19.878,0,39.656,0,59.634c-5.518,0-10.836,0-16.361,0c0-23.035,0-46.17,0-69.574
	c0.777-0.099,1.448-0.143,2.236-0.143c8.34,0,16.701-0.225,25.15,0.043c4.072,0.135,8.274,0.545,12.198,1.679
	c9.482,2.753,14.172,9.851,16.016,19.071c0.705,3.523,1.128,7.185,1.174,10.775C1016.306,124.346,1016.236,137.105,1016.236,150.031
	z"/>
<linearGradient id="SVGID_6_" gradientUnits="userSpaceOnUse" x1="918.9675" y1="80.2915" x2="918.9675" y2="150.2158">
	<stop  offset="0" style="stop-color:#D1D1D1"/>
	<stop  offset="1" style="stop-color:#787878"/>
</linearGradient>
<path fill="url(#SVGID_6_)" d="M888.883,114.607c0.636-4.531,1.004-9.735,2.082-14.705c2.481-11.148,10.306-17.931,21.688-19.24
	c4.97-0.547,9.939-0.547,14.91,0.403c9.67,1.847,16.296,7.4,18.975,16.775c3.354,11.499,3.354,23.18,0,34.644
	c-2.522,8.951-8.549,14.559-17.646,16.641c-7.204,1.525-14.361,1.525-21.476-0.47c-10.158-2.887-15.278-10.313-17.091-20.271
	C889.652,123.988,889.363,119.645,888.883,114.607z M932.901,115.213c-0.207,0-0.368-0.016-0.541-0.016c0-1.328,0-2.604,0-3.849
	c-0.098-4.867-0.466-9.635-2.179-14.242c-1.076-3.076-3.027-5.42-6.271-6.374c-3.194-0.906-6.438-0.95-9.663-0.071
	c-4.657,1.246-6.479,4.906-7.327,9.104c-2.067,10.308-2.022,20.706,0,30.992c0.604,3.087,1.938,5.978,4.742,7.788
	c7.134,4.701,17.073,1.261,19.009-6.951C931.994,126.332,932.174,120.751,932.901,115.213z"/>
<linearGradient id="SVGID_7_" gradientUnits="userSpaceOnUse" x1="668.824" y1="58.2886" x2="668.824" y2="150.1309">
	<stop  offset="0" style="stop-color:#D1D1D1"/>
	<stop  offset="1" style="stop-color:#787878"/>
</linearGradient>
<path fill="url(#SVGID_7_)" d="M690.78,58.334c0,3.472,0,6.551,0,9.904c-2.081,0-3.965,0-5.945,0c-5.244,0-10.516,0-15.814,0
	c-6.782,0.035-10.677,3.381-11.406,10.122c-0.272,2.637-0.272,5.325,0,7.944c0.831,6.245,4.155,9.267,10.399,9.77
	c3.626,0.27,7.177,0.449,10.747,1.035c7.563,1.082,12.549,5.513,15.008,12.526c3.157,8.837,3.255,17.871,0.18,26.833
	c-2.898,8.496-9.379,13.007-18.076,13.365c-10.059,0.523-20.146,0.199-30.554,0.199c0-3.191,0-6.345,0-9.67
	c0.638-0.1,1.465-0.199,2.183-0.199c6.317,0,12.757,0,19.17,0c8.026,0,11.75-2.988,12.92-10.915
	c0.444-3.624,0.176-7.521-0.563-11.119c-0.975-5.533-4.698-8.202-10.376-8.494c-3.121-0.279-6.244-0.279-9.282-0.953
	c-9.069-1.906-14.65-7.603-16.839-16.5c-1.915-7.957-1.445-15.727,2.718-23c3.326-6.01,8.844-9.436,15.546-10.301
	c5.019-0.59,10.107-0.544,15.177-0.59C681.038,58.289,685.81,58.334,690.78,58.334z"/>
<linearGradient id="SVGID_8_" gradientUnits="userSpaceOnUse" x1="724.7029" y1="68.5469" x2="724.7029" y2="150.0518">
	<stop  offset="0" style="stop-color:#D1D1D1"/>
	<stop  offset="1" style="stop-color:#787878"/>
</linearGradient>
<path fill="url(#SVGID_8_)" d="M737.319,140.394c0,3.22,0,6.281,0,9.375c-5,0-10.009,0.7-14.91-0.106
	c-7.965-1.361-12.091-7.219-13.828-14.836c-0.542-2.055-0.578-4.333-0.611-6.443c-0.102-19.029,0-38.013,0-56.91
	c0-0.885,0-1.89,0-2.926c5.507,0,10.646,0,16.163,0c0,3.805,0,7.614,0,11.569c5.965,0,11.672,0,17.348,0c0,3.369,0,6.457,0,9.948
	c-5.647,0-11.281,0-17.081,0c-0.077,0.941-0.178,1.713-0.178,2.485c0,12.909,0,25.873,0,38.764c0,1.359,0.178,2.633,0.369,3.88
	c0.638,3.443,2.52,4.971,6.044,5.07c2.082,0,4.163,0,6.245,0.1C737.005,140.261,737.05,140.361,737.319,140.394z"/>
<linearGradient id="SVGID_9_" gradientUnits="userSpaceOnUse" x1="835.4783" y1="68.5469" x2="835.4783" y2="150.0508">
	<stop  offset="0" style="stop-color:#D1D1D1"/>
	<stop  offset="1" style="stop-color:#787878"/>
</linearGradient>
<path fill="url(#SVGID_9_)" d="M818.673,68.547c5.507,0,10.65,0,16.083,0c0,3.754,0,7.548,0,11.568c5.982,0,11.652,0,17.528,0
	c0,3.435,0,6.557,0,9.948c-5.719,0-11.383,0-17.166,0c-0.093,0.941-0.193,1.625-0.193,2.385c0,13.156,0,26.266,0,39.418
	c0,1.203,0.193,2.52,0.514,3.794c0.854,3.269,2.386,4.502,5.861,4.502c2.065,0,4.129,0,6.189,0.1c0.094,0,0.193,0.101,0.462,0.269
	c0,3.084,0,6.145,0,9.302c-4.901,0-9.882,0.536-14.638-0.071c-7.786-1.163-13.465-8.224-14.285-16.55
	c-0.186-1.313-0.269-2.52-0.269-3.896c0-19.607,0-39.118,0-58.728C818.673,70.008,818.673,69.414,818.673,68.547z"/>
<linearGradient id="SVGID_10_" gradientUnits="userSpaceOnUse" x1="484.3987" y1="58.4312" x2="484.3987" y2="149.9316">
	<stop  offset="0" style="stop-color:#D1D1D1"/>
	<stop  offset="1" style="stop-color:#787878"/>
</linearGradient>
<path fill="url(#SVGID_10_)" d="M476.49,58.431c5.401,0,10.558,0,15.817,0c0,30.491,0,60.868,0,91.5c-5.26,0-10.511,0-15.817,0
	C476.49,119.477,476.49,89.057,476.49,58.431z"/>
<linearGradient id="SVGID_11_" gradientUnits="userSpaceOnUse" x1="870.365" y1="80.3931" x2="870.365" y2="150.0313">
	<stop  offset="0" style="stop-color:#D1D1D1"/>
	<stop  offset="1" style="stop-color:#787878"/>
</linearGradient>
<path fill="url(#SVGID_11_)" d="M878.24,150.031c-5.173,0-10.315,0-15.749,0c0-23.135,0-46.331,0-69.638c5.16,0,10.309,0,15.749,0
	C878.24,103.393,878.24,126.527,878.24,150.031z"/>
<path fill="#346CB0" d="M279.028,118.839c13.331-5.69,27.213-7.957,41.577-6.783c9.395,0.798,18.509,2.85,27.081,6.951
	c1.311,0.586,2.547,1.465,3.721,2.344c3.735,2.929,3.871,7.059,0.346,10.414c-2.97,2.789-6.553,4.602-10.497,5.775
	c-0.349-0.169-0.754-0.37-1.111-0.537c-4.693-1.345-9.388-2.718-14.083-4.163c-2.415-0.708-4.763-1.611-7.114-2.421
	c2.896-1.157,5.8-2.182,8.704-3.355c1.373-0.539,2.687-1.276,2.825-3.076c-1.172-1.994-3.241-2.163-5.173-2.344
	c-4.772-0.456-9.468-0.087-14.022,1.625c-2.906,1.075-5.872,1.981-8.775,2.987c-0.34-0.369-0.685-0.806-1.102-1.005
	c-2.142-0.636-4.282-1.077-6.421-1.713C289.666,121.996,284.343,120.472,279.028,118.839z"/>
<path fill="#EAC008" d="M251.47,136.292c0,2.425,0,4.975,0,7.323c-7.733,1.446-15.469,2.342-23.346,2.055
	c-10.567-0.299-20.857-2.055-30.597-6.416c-1.454-0.618-2.827-1.513-4.142-2.519c-3.938-3.078-4.077-7.768,0-10.677
	c3.038-2.149,6.56-3.693,9.81-5.507c0.827,0.368,1.723,0.806,2.623,1.092c6.628,2.166,13.194,4.347,19.82,6.446
	c-2.902,1.172-5.8,2.232-8.561,3.509c-0.971,0.338-1.589,1.47-2.697,2.688c1.726,0.83,2.834,1.542,4.009,1.813
	c5.382,1.174,10.568,0.468,15.744-1.273c2.281-0.809,4.561-1.347,6.841-2.05C244.496,133.949,248.016,135.121,251.47,136.292z"/>
<path fill="#08A899" d="M318.949,130.421c2.35,0.808,4.699,1.77,7.113,2.421c4.696,1.445,9.39,2.818,14.083,4.163
	c0.42,0.165,0.764,0.368,1.112,0.537c-7.396,2.719-14.78,5.485-22.238,8.128c-5.25,2.01-10.505,3.803-15.75,5.604
	c-0.964,0.369-1.937,0.549-2.97,0.838c-1.73-0.586-3.521-1.177-5.252-1.813c-5.519-1.712-11.046-3.46-16.642-5.218
	c0-0.221,0-0.489,0-0.657c4.976-1.713,9.948-3.444,14.849-5.17C301.887,136.367,310.383,133.363,318.949,130.421z"/>
<path fill="#08A899" d="M225.637,128.09c-6.626-2.101-13.259-4.282-19.82-6.446c-0.9-0.286-1.729-0.724-2.623-1.092
	c12.498-4.433,24.929-8.864,37.43-13.331c3.592,1.141,7.251,2.316,10.845,3.391c0,2.827,0,5.606,0,8.396
	c-0.899,0.29-1.796,0.567-2.694,0.837C241.111,122.534,233.372,125.353,225.637,128.09z"/>
<linearGradient id="SVGID_12_" gradientUnits="userSpaceOnUse" x1="870.448" y1="58.4312" x2="870.448" y2="71.8975">
	<stop  offset="0" style="stop-color:#D1D1D1"/>
	<stop  offset="1" style="stop-color:#787878"/>
</linearGradient>
<path fill="url(#SVGID_12_)" d="M862.59,58.431c5.24,0,10.395,0,15.717,0c0,4.468,0,8.901,0,13.466c-5.24,0-10.336,0-15.717,0
	C862.59,67.466,862.59,63.034,862.59,58.431z"/>
<path fill="#08A899" d="M279.028,118.839c5.315,1.633,10.638,3.156,15.881,4.7c2.146,0.637,4.289,1.076,6.423,1.713
	c0.419,0.198,0.762,0.637,1.109,1.006c-1.587,0.637-3.178,1.245-4.77,1.813c-6.349,2.15-12.774,4.411-19.125,6.583
	c0-5.34,0-10.667-0.07-15.915C278.684,118.839,278.892,118.839,279.028,118.839z"/>
<path fill="#EAC008" d="M278.476,145.23c5.525,1.713,11.053,3.367,16.644,5.138c1.796,0.573,3.524,1.276,5.253,1.914
	c-7.256,2.618-14.576,5.238-21.827,7.756C278.546,155.07,278.476,150.1,278.476,145.23z"/>
<linearGradient id="SVGID_13_" gradientUnits="userSpaceOnUse" x1="1032.8943" y1="150.4673" x2="1032.8943" y2="166.1831">
	<stop  offset="0" style="stop-color:#D1D1D1"/>
	<stop  offset="1" style="stop-color:#787878"/>
</linearGradient>
<path fill="url(#SVGID_13_)" d="M1032.853,166.183c-4.37-0.008-7.838-3.521-7.838-7.857c0-4.501,3.468-7.958,8.106-7.856
	c4.337,0.102,7.712,3.527,7.649,8.059C1040.771,162.757,1037.19,166.183,1032.853,166.183z M1037.728,162.389
	c2.202-2.352,2.082-6.214-0.362-8.564c-2.466-2.45-6.319-2.55-8.831-0.199c-2.62,2.45-2.729,6.412-0.337,9.036
	c2.121,2.349,6.274,2.716,8.624,0.733L1037.728,162.389z"/>
<path fill="#346CB0" d="M251.47,110.613c-3.594-1.075-7.254-2.25-10.845-3.391c3.66-1.31,7.251-2.619,10.912-3.929
	C251.47,105.778,251.47,108.228,251.47,110.613z"/>
<path fill="#08A899" d="M240.973,132.777c2.137-0.88,4.278-1.817,6.422-2.638c1.313-0.586,2.691-0.99,4.074-1.46
	c0,2.632,0,5.168,0,7.689C248.016,135.121,244.496,133.949,240.973,132.777z"/>
<linearGradient id="SVGID_14_" gradientUnits="userSpaceOnUse" x1="1033.2703" y1="153.6382" x2="1033.2703" y2="162.5884">
	<stop  offset="0" style="stop-color:#D1D1D1"/>
	<stop  offset="1" style="stop-color:#787878"/>
</linearGradient>
<path fill="url(#SVGID_14_)" d="M1037.037,162.364c-0.628,0.025-1.291,0.125-2.063,0.225c-0.134-1.175-0.227-2.081-0.289-3.356
	c-1.111-0.088-2.129-0.169-3.37-0.269c-0.093,1.275-0.199,2.229-0.269,3.4c-0.435,0.025-0.906,0.125-1.543,0.225
	c0-2.987,0-5.789,0-8.594c3.727-0.638,4.794-0.438,6.572,0.752c0.07,0.691,0.333,2.054,0,2.93c-0.215,0.481-1.389,0.586-0.965,0.649
	c1.928,0.232,1.635,2.619,1.87,4.063L1037.037,162.364z M1031.222,157.35c3.25,0.339,4.015,0.538,3.525-1.543
	c-0.112-0.765-2.258-0.269-3.525-0.269C1031.222,155.975,1031.222,156.613,1031.222,157.35z"/>
</svg>
