<?xml version="1.0" encoding="utf-8"?>
<!-- Generator: Adobe Illustrator 16.0.3, SVG Export Plug-In . SVG Version: 6.00 Build 0)  -->
<!DOCTYPE svg PUBLIC "-//W3C//DTD SVG 1.1//EN" "http://www.w3.org/Graphics/SVG/1.1/DTD/svg11.dtd">
<svg version="1.1"
	 id="Calque_1" sodipodi:docname="under-construction_geek_man_01.svg" inkscape:version="0.48.5 r10040" xmlns:dc="http://purl.org/dc/elements/1.1/" xmlns:cc="http://creativecommons.org/ns#" xmlns:rdf="http://www.w3.org/1999/02/22-rdf-syntax-ns#" xmlns:svg="http://www.w3.org/2000/svg" xmlns:sodipodi="http://sodipodi.sourceforge.net/DTD/sodipodi-0.dtd" xmlns:inkscape="http://www.inkscape.org/namespaces/inkscape"
	 xmlns="http://www.w3.org/2000/svg" xmlns:xlink="http://www.w3.org/1999/xlink" x="0px" y="0px" width="566.929px"
	 height="512.338px" viewBox="248.086 286.612 566.929 512.338" enable-background="new 248.086 286.612 566.929 512.338"
	 xml:space="preserve">
<sodipodi:namedview  id="namedview11" inkscape:window-maximized="1" fit-margin-left="0" fit-margin-top="0" showguides="true" bordercolor="#666666" pagecolor="#ffffff" guidetolerance="10" inkscape:cy="393.14889" gridtolerance="10" inkscape:cx="262.16295" objecttolerance="10" inkscape:zoom="0.44893375" borderopacity="1" showgrid="false" fit-margin-bottom="0" fit-margin-right="0" inkscape:guide-bbox="true" inkscape:current-layer="layer3" inkscape:window-y="0" inkscape:window-x="0" inkscape:window-height="1055" inkscape:window-width="1920" inkscape:pageshadow="2" inkscape:pageopacity="0">
	<sodipodi:guide  id="guide3007" position="536.06669,-185.69289" orientation="1,0"></sodipodi:guide>
	<sodipodi:guide  id="guide4009" position="289.78134,329.8526" orientation="0,1"></sodipodi:guide>
</sodipodi:namedview>
<g id="g4116" transform="translate(351.78176,420.0403)" inkscape:label="man" inkscape:groupmode="layer">
	<g id="g4471" transform="matrix(1.0596452,0,0,1.0596452,-422.76972,-711.37478)">
		<g id="g4467">
			<path id="path590" inkscape:connector-curvature="0" sodipodi:nodetypes="cccccccc" fill="#FF0000" d="M388.534,964.272
				c-14.903-1.222-25.048-18.582-18.532-32.149c27.026-46.886,150.405-258.806,180.01-310.777
				c8.53-12.304,28.634-12.432,37.065,0.005c27.099,46.866,149.997,258.604,180.138,310.209c6.422,13.53-3.06,31.965-18.115,33.104
				C694.961,964.722,448.384,963.895,388.534,964.272L388.534,964.272z"/>
			<path id="path605" inkscape:connector-curvature="0" sodipodi:nodetypes="cccc" fill="#FFBB00" d="M428.528,923.366l284.195-0.82
				L569.878,671.647L428.528,923.366z"/>
		</g>
	</g>
	<path id="path4118" inkscape:connector-curvature="0" d="M184.818,100.133c-9.26,0.226-13.362,8.393-13.68,14.134
		c-0.05,0.998,0.644,2.941,1.783,4.11c0.586,0.566,1.465,1.906,2.235,2.161c0.765,0.251,1.844,1.423,2.376,1.863
		c1.102,0.878,1.5,0.851,2.064,1.983c0.572,1.094,0.774,4.17,1.855,5.488c0.509,0.657,1.758-0.891,2.634-0.215
		c2.202,1.689,1.468,0.656,2.054,1.32c1.172,1.302,0.934,0.896,2.492,1.244c2.93,0.288,3.66-3.441,6.59-4.265
		c0.586,0.529,0.879,1.115,1.172,1.702c-0.2,3.532-1.465,8.017,0,9.962c2.785,14.129,1.172,9.405,2.492,18.416
		c-6.776,1.467-11.719,4.29-18.164,0.878c-5.094-2.721-4.654-6.794-10.73-3.15c-1.102,0.66-3.369,1.21-2.274,2.682
		c1.758,0.219,6.738-0.516,6.738,2.709c-6.637,0.029-8.642-1.053-16.164-0.88c-0.825,0.804-0.073,3.222-1.338,3.583
		c-8.864,0.958-11.134-4.731-16.186-7.621c0.295-3.142-0.586-7.503,0.478-9.88c1.131,1.826,0.915,5.047,2.23,6.738
		c2.427,0.464,2.707-1.249,4.962-0.919c-3.521-17.323-7.137-35.618-12.14-50.724c-0.889-0.587-2.986,0.664-4.469,0.885
		c3.81,16.071,6.446,33.082,5.822,52.987c-1.134,3.639-5.895,3.699-6.289,8.093c-8.981-0.296-1.704,0.228-10.687-0.066v7.179h6.76
		c-0.001,25.734-0.294,60.663-0.001,87.167c2.197-0.248,5.037,0,7.252,0c0-22.54,0-63.043,0.272-86.661h52.06
		c1.906,0.372,0.879-2.158,2.702-1.803c3.599,2.06,9.975,1.431,12.998,4.054v3.596c-10.72,3.235-21.267,7.375-30.969,11.666
		c-2.885,1.292-7.987,2.957-9.409,4.939c-1.947,2.709-0.805,6.039-1.361,9.878c-2.707,10.697-12.33,35.436-12.33,35.436l1.918,1.012
		l1.917,1.006c0,0-4.497,3.85-8.868,5.314c-3.949,1.329-8.271,4.98-5.12,5.252c6.077,0.432,13.694,0.314,19.474-1.872
		c0.595,1.172-0.536,1.313,0.741,1.872c1.318,0.472,6.254,0.021,8.126,0c0.88-3.886-0.585-5.252-0.438-8.498
		c0.146-4.255,2.818-8.903,4.032-13.473c1.242-4.806,2.267-9.355,4.025-13.459l-0.414-2.195c1.663,8.212,3.166,16.495,4.662,24.756
		c3.041,1.021,5.826,0.448,8.9,1.729c0.02,1.206,0.931,2.373,0.879,3.672c-5.17,7.324-9.047,8.233-9.047,8.233
		c3.879-0.909-2.051,0.308-1.758,2.93c0.27,2.618,9.488-0.879,9.488-0.879c1.647-1.758,3.526-1.584,5.273-3.428
		c0.73,1.578,0.311,1.233,1.479,0.927c1.169-0.293,3.938-0.586,4.852-1.027c0.552-5.261-0.327-8.055-2.341-12.449h1.283
		c-3.516-11.449-7.033-23.293-9.816-35.252c0,0,17.681-1.34,22.917-0.311c-0.627,8.875,0,21.186,0,30.739
		c-0.503,9.345,0.228,15.529-4.312,16.113c-3.779,0.429-12.78,3.523-16.27,4.395c0.096,1.577,0.156,1.874-0.12,3.788h4.378
		c1.268,0,1.023-1.309,2.195-2.773c2.637-1.069,11.972-1.894,16.408-2.187c7.322-1.172,14.787,1.015,25.781,2.187
		c1.187,0.416,2.198,2.773,2.198,2.773l4.54-0.072c0,0,0.293-1.899,0.165-3.611c-7.57-2.155-17.257-2.159-24.628-4.499
		c-4.688,0-4.688-3.087-4.688-15.236v-13.778c0.293-5.422,0-11.708,0.186-17.133c4.795-0.03,10.385,1.756,13.933-0.432
		c4.8-3.081,4.218-3.718,5.219-11.007c1.024-7.333,2.518-22.538,3.358-29.885c0.236-2.543,1.768-14.362,2.08-17.145
		c-0.418-0.046-0.89-0.175-1.635-0.353c-2.271,12.135-3.365,28.317-5.123,40.992c-1.025,7.365-1.758,16.074-9.253,14.223
		c5.298-5.746,7.51-16.307,6.761-27.55c0.881-10.462-1.441-15.383-3.221-26.809c-0.617-3.951-7.246-14.503-9.375-16.997
		c-1.172-1.471-6.777-5.792-9.082-7.539l0.251-0.364c-3.329-0.953-5.966-2.494-8.747-3.7c-1.169-7.91-6.738-13.037-11.426-15.933
		C188.339,100.298,186.442,100.075,184.818,100.133L184.818,100.133z"/>
</g>
</svg>
