<?xml version="1.0" encoding="utf-8"?>
<!-- Generator: Adobe Illustrator 16.0.3, SVG Export Plug-In . SVG Version: 6.00 Build 0)  -->
<!DOCTYPE svg PUBLIC "-//W3C//DTD SVG 1.1//EN" "http://www.w3.org/Graphics/SVG/1.1/DTD/svg11.dtd">
<svg version="1.1" id="Capa_1" xmlns="http://www.w3.org/2000/svg" xmlns:xlink="http://www.w3.org/1999/xlink" x="0px" y="0px"
	 width="854.183px" height="131.66px" viewBox="864.317 181.024 854.183 131.66"
	 enable-background="new 864.317 181.024 854.183 131.66" xml:space="preserve">
<linearGradient id="SVGID_1_" gradientUnits="userSpaceOnUse" x1="1571.4817" y1="189.8926" x2="1571.4817" y2="300.7075">
	<stop  offset="0" style="stop-color:#D9D9D9"/>
	<stop  offset="1" style="stop-color:#737373"/>
</linearGradient>
<path fill="url(#SVGID_1_)" d="M1614.786,192.337v87.006l-64.11-87.049l-10.525-0.011v105.942h11.773v-85.129l62.847,85.177h11.795
	V192.337H1614.786z M1478.909,189.893c-29.827,0-50.657,22.767-50.657,55.408c0,32.664,20.83,55.407,50.657,55.407
	c29.743,0,50.474-22.743,50.474-55.407C1529.383,212.66,1508.659,189.893,1478.909,189.893 M1478.909,289.483
	c-22.705,0-38.638-18.166-38.638-44.183c0-26.052,15.933-44.213,38.638-44.213c22.616,0,38.414,18.162,38.414,44.213
	C1517.33,271.317,1501.526,289.483,1478.909,289.483 M1651.73,287.931v-39.169h58.288v-10.424h-58.288v-35.69h62.245v-10.354
	h-74.188v105.98h74.924v-10.343H1651.73z"/>
<linearGradient id="SVGID_2_" gradientUnits="userSpaceOnUse" x1="1261.9436" y1="192.3374" x2="1261.9436" y2="298.3511">
	<stop  offset="0" style="stop-color:#D9D9D9"/>
	<stop  offset="1" style="stop-color:#737373"/>
</linearGradient>
<path fill="url(#SVGID_2_)" d="M1395.127,298.351l-33.928-45.962l-33.789,45.962h-14.022l40.742-55.521l-37.201-50.493h14.017
	l30.254,41.185l30.332-41.185h13.871l-37.144,50.493l40.745,55.521H1395.127z M1208.657,246.828
	c-2.123-1.793-4.459-3.27-6.941-4.436c7.701-4.144,12.722-12.031,12.722-21.222c0-6.756-2.472-28.833-34.429-28.833h-43.063v45.709
	h-14.349c-2.64,3.481-5.222,7.043-7.714,10.683h22.063v49.606l43.063,0.008c23.293,0,37.811-11.79,37.811-30.905
	C1217.82,259.029,1214.643,251.979,1208.657,246.828 M1148.831,203.425h31.178c8.41,0,22.551,2.069,22.551,16.848
	c0,11.133-8.237,17.781-22.551,17.781h-31.178V203.425z M1180.003,287.319h-31.176v-38.567h31.176
	c11.792,0,25.926,3.227,25.926,18.463C1205.93,284.702,1189.696,287.319,1180.003,287.319"/>
<linearGradient id="SVGID_3_" gradientUnits="userSpaceOnUse" x1="1179.9197" y1="189.9077" x2="1179.9197" y2="300.7075">
	<stop  offset="0" style="stop-color:#D9D9D9"/>
	<stop  offset="1" style="stop-color:#737373"/>
</linearGradient>
<path fill="url(#SVGID_3_)" d="M1273.824,189.908c-29.806,0-50.611,22.753-50.611,55.407c0,32.665,20.805,55.393,50.611,55.393
	c29.725,0,50.454-22.728,50.454-55.393C1324.279,212.661,1303.549,189.908,1273.824,189.908 M1273.824,289.483
	c-22.723,0-38.599-18.166-38.599-44.169c0-26.052,15.876-44.227,38.599-44.227c22.591,0,38.395,18.175,38.395,44.227
	C1312.219,271.317,1296.415,289.483,1273.824,289.483 M1131.136,298.336l-40.749-55.506l37.192-50.493h-13.929l-30.318,41.2
	l-30.298-41.2h-13.894l37.17,50.493l-40.75,55.506h13.958l33.832-45.947l33.842,45.947H1131.136z"/>
<path fill="#666666" d="M997.512,246.88c0,36.382-29.82,65.804-66.599,65.804c-36.775,0-66.596-29.422-66.596-65.804
	c0-36.374,29.821-65.856,66.596-65.856C967.693,181.024,997.512,210.498,997.512,246.88L997.512,246.88z"/>
<radialGradient id="SVGID_4_" cx="-225.8269" cy="-929.1709" r="4.6846" gradientTransform="matrix(0 20.4782 -18.1843 0 -15966.6367 4864.3447)" gradientUnits="userSpaceOnUse">
	<stop  offset="0" style="stop-color:#FFFFFF"/>
	<stop  offset="1" style="stop-color:#FFFFFF;stop-opacity:0"/>
</radialGradient>
<path fill="url(#SVGID_4_)" d="M997.512,246.88c0,36.382-29.82,65.804-66.599,65.804c-36.775,0-66.596-29.422-66.596-65.804
	c0-36.374,29.821-65.856,66.596-65.856C967.693,181.024,997.512,210.498,997.512,246.88L997.512,246.88z"/>
<radialGradient id="SVGID_5_" cx="-225.8269" cy="-929.1709" r="4.6846" gradientTransform="matrix(0 20.4782 -18.1843 0 -15966.6367 4864.3447)" gradientUnits="userSpaceOnUse">
	<stop  offset="0" style="stop-color:#FFFFFF"/>
	<stop  offset="1" style="stop-color:#FFFFFF;stop-opacity:0"/>
</radialGradient>
<path fill="url(#SVGID_5_)" d="M997.512,246.88c0,36.382-29.82,65.804-66.599,65.804c-36.775,0-66.596-29.422-66.596-65.804
	c0-36.374,29.821-65.856,66.596-65.856C967.693,181.024,997.512,210.498,997.512,246.88L997.512,246.88z"/>
<radialGradient id="SVGID_6_" cx="872.8665" cy="246.8506" r="76.9329" gradientTransform="matrix(0.8607 0 0 0.8607 179.655 34.3937)" gradientUnits="userSpaceOnUse">
	<stop  offset="0" style="stop-color:#FFFFFF"/>
	<stop  offset="1" style="stop-color:#A6A6A6"/>
</radialGradient>
<path fill="url(#SVGID_6_)" d="M997.512,246.88c0,36.382-29.82,65.804-66.599,65.804c-36.775,0-66.596-29.422-66.596-65.804
	c0-36.374,29.821-65.856,66.596-65.856C967.693,181.024,997.512,210.498,997.512,246.88L997.512,246.88z"/>
<path fill="#00A54D" d="M914.025,218.046c-7.358,8.905-38.164,45.087-35.425,69.662c1.903,2.361,3.992,4.651,6.205,6.759
	c-0.319-18.749,21.682-38.827,38.855-53.979l-9.637-22.441H914.025z"/>
<g transform="matrix(1.0075 0 0 1.00084 1.107 -34.878)">
	
		<linearGradient id="SVGID_7_" gradientUnits="userSpaceOnUse" x1="-84.8919" y1="-421.898" x2="-85.9547" y2="-423.1445" gradientTransform="matrix(14.9107 0 0 14.7137 2164.8999 6507.5303)">
		<stop  offset="0" style="stop-color:#97CA43"/>
		<stop  offset="1" style="stop-color:#97CA43;stop-opacity:0"/>
	</linearGradient>
	<path fill="url(#SVGID_7_)" d="M906.118,252.713c-7.301,8.897-37.878,45.046-35.159,69.602c1.889,2.36,3.961,4.647,6.159,6.752
		c-0.316-18.731,21.518-38.799,38.566-53.932L906.118,252.713z"/>
</g>
<g transform="matrix(1.0075 0 0 1.00084 .968 -34.846)">
	<path fill="#02A74D" d="M888.308,225.519c-3.792,2.314-7.339,5.007-10.607,8.023c10.49,2.032,21.011,11.287,26.774,19.019
		c5.019,7.904,7.75,15.123,11.293,22.602c2.463-2.111,4.961-4.196,7.487-6.249l-0.015-32.467
		c-7.809-4.912-20.725-11.339-34.806-10.929C888.406,225.548,888.339,225.494,888.308,225.519z"/>
	
		<linearGradient id="SVGID_8_" gradientUnits="userSpaceOnUse" x1="-84.5397" y1="-424.9172" x2="-83.5659" y2="-427.0786" gradientTransform="matrix(14.9107 0 0 14.7137 2158.9177 6507.9688)">
		<stop  offset="0" style="stop-color:#97CA43"/>
		<stop  offset="1" style="stop-color:#97CA43;stop-opacity:0"/>
	</linearGradient>
	<path fill="url(#SVGID_8_)" d="M888.308,225.519c-3.792,2.314-7.339,5.007-10.607,8.023c10.49,2.032,21.011,11.287,26.774,19.019
		c5.019,7.904,7.75,15.123,11.293,22.602c2.463-2.111,4.961-4.196,7.487-6.249l-0.015-32.467
		c-7.809-4.912-20.725-11.339-34.806-10.929C888.406,225.548,888.339,225.494,888.308,225.519z"/>
</g>
<g>
	<path fill="#00A54D" d="M947.839,218.074c7.328,8.928,38.024,45.147,35.305,69.651c-1.897,2.41-3.987,4.688-6.191,6.792
		c0.32-18.774-21.608-38.794-38.729-53.992l9.615-22.454V218.074z"/>
	<g transform="matrix(-1.00417 0 0 1.00169 61.912 -34.88)">
		
			<linearGradient id="SVGID_9_" gradientUnits="userSpaceOnUse" x1="-2602.8643" y1="-421.2879" x2="-2603.9268" y2="-422.5344" gradientTransform="matrix(14.8128 0 0 14.7394 37657.5469 6501.8174)">
			<stop  offset="0" style="stop-color:#97CA43"/>
			<stop  offset="1" style="stop-color:#97CA43;stop-opacity:0"/>
		</linearGradient>
		<path fill="url(#SVGID_9_)" d="M-882.248,252.526c-7.295,8.908-37.865,45.071-35.159,69.536c1.899,2.4,3.961,4.681,6.168,6.78
			c-0.32-18.743,21.518-38.726,38.567-53.901L-882.248,252.526z"/>
	</g>
	<g transform="matrix(-1.00417 0 0 1.00169 62.051 -34.848)">
		<path fill="#02A74D" d="M-900.047,225.332c-3.796,2.311-7.348,5.011-10.612,8.015c10.486,2.037,21.008,11.305,26.765,19.007
			c5.027,7.896,7.752,15.157,11.302,22.646c2.398-2.046,4.84-4.148,7.485-6.271l-0.016-32.468
			c-7.818-4.912-20.725-11.34-34.806-10.929C-899.95,225.36-900.02,225.305-900.047,225.332z"/>
		
			<linearGradient id="SVGID_10_" gradientUnits="userSpaceOnUse" x1="-2601.5037" y1="-424.3318" x2="-2600.6714" y2="-425.6876" gradientTransform="matrix(14.8128 0 0 14.7394 37655.6523 6502.2715)">
			<stop  offset="0" style="stop-color:#97CA43"/>
			<stop  offset="1" style="stop-color:#97CA43;stop-opacity:0"/>
		</linearGradient>
		<path fill="url(#SVGID_10_)" d="M-900.047,225.332c-3.796,2.311-7.348,5.011-10.612,8.015
			c10.486,2.037,21.008,11.305,26.765,19.007c5.027,7.896,7.752,15.157,11.302,22.646c2.398-2.046,4.84-4.148,7.485-6.271
			l-0.016-32.468c-7.818-4.912-20.725-11.34-34.806-10.929C-899.95,225.36-900.02,225.305-900.047,225.332z"/>
	</g>
</g>
</svg>
